<?xml version="1.0" encoding="UTF-8"?>
<!DOCTYPE svg PUBLIC "-//W3C//DTD SVG 1.1//EN" "http://www.w3.org/Graphics/SVG/1.1/DTD/svg11.dtd">
<!-- Creator: CorelDRAW X8 -->
<svg xmlns="http://www.w3.org/2000/svg" xml:space="preserve" width="164mm" height="50mm" version="1.1" style="shape-rendering:geometricPrecision; text-rendering:geometricPrecision; image-rendering:optimizeQuality; fill-rule:evenodd; clip-rule:evenodd"
viewBox="0 0 16400 5000"
 xmlns:xlink="http://www.w3.org/1999/xlink">
 <defs>
  <style type="text/css">
   <![CDATA[
    .fil0 {fill:#FEFEFE;fill-rule:nonzero}
   ]]>
  </style>
 </defs>
 <g id="Camada_x0020_1">
  <metadata id="CorelCorpID_0Corel-Layer"/>
  <g id="_1696403928128">
   <g>
    <path class="fil0" d="M4046 1483l592 0 43 0 579 856 224 0 -596 -882c261,-64 362,-244 362,-489l0 -341c0,-311 -164,-515 -612,-515l-790 0 0 2227 198 0 0 -856zm0 -1193l0 0 595 0c281,0 411,93 411,337l0 341c0,245 -130,338 -411,338l-595 0 0 -1016z"/>
    <polygon class="fil0" points="6132,112 5935,112 5935,2339 6132,2339 "/>
    <polygon class="fil0" points="7951,2162 6948,2162 6948,112 6750,112 6750,2339 7951,2339 "/>
    <polygon class="fil0" points="8599,1283 9676,1283 9676,2339 9873,2339 9873,112 9676,112 9676,1106 8599,1106 8599,112 8402,112 8402,2339 8599,2339 "/>
    <path class="fil0" d="M10849 1905l746 0 120 434 522 0 -682 -2227 -669 0 -679 2227 522 0 120 -434zm372 -1351l0 0 254 933 -512 0 258 -933z"/>
    <path class="fil0" d="M12989 1647l294 0 492 692 595 0 -538 -762c224,-94 324,-281 324,-558l0 -275c0,-418 -201,-632 -742,-632l-926 0 0 2227 501 0 0 -692zm0 -1090l0 0 398 0c204,0 268,67 268,234l0 177c0,168 -54,245 -268,245l-398 0 0 -656z"/>
    <polygon class="fil0" points="15059,2339 15560,2339 15560,557 16159,557 16159,112 14460,112 14460,557 15059,557 "/>
    <polygon class="fil0" points="3938,4401 4414,4401 4414,4316 3938,4316 3938,3916 4450,3916 4450,3830 3843,3830 3843,4908 4452,4908 4452,4823 3938,4823 "/>
    <path class="fil0" d="M6450 4325c-226,-56 -231,-64 -231,-239 0,-135 29,-187 243,-187 84,0 184,15 264,33l11 -81c-73,-21 -185,-37 -279,-37 -270,0 -335,92 -335,268 0,217 29,264 290,324 240,55 241,73 241,240 0,138 -50,193 -234,193 -94,0 -193,-15 -290,-44l-18 78c92,35 210,52 304,52 274,0 334,-107 334,-284 0,-204 -16,-244 -300,-316z"/>
    <path class="fil0" d="M8784 3899c70,0 167,8 240,21l11 -82c-81,-16 -181,-24 -259,-24 -261,0 -358,111 -358,312l0 486c0,201 97,313 358,313 78,0 178,-8 259,-25l-11 -82c-73,13 -170,21 -240,21 -196,0 -270,-60 -270,-229l0 -482c0,-169 74,-229 270,-229z"/>
    <path class="fil0" d="M11049 3814c-277,0 -378,136 -378,320l0 470c0,185 101,321 378,321 277,0 377,-136 377,-321l0 -470c0,-184 -100,-320 -377,-320zm281 787l0 0c0,154 -74,238 -281,238 -208,0 -282,-84 -282,-238l0 -464c0,-153 74,-238 282,-238 207,0 281,85 281,238l0 464z"/>
    <polygon class="fil0" points="13214,3830 13119,3830 13119,4908 13700,4908 13700,4823 13214,4823 "/>
    <path class="fil0" d="M15631 3830l-376 1078 94 0 100 -283 502 0 102 283 94 0 -375 -1078 -141 0zm-153 712l0 0 222 -657 222 657 -444 0z"/>
    <polygon class="fil0" points="3844,3037 3844,3130 16159,3130 16159,3037 "/>
   </g>
   <path class="fil0" d="M2884 2395c381,-165 532,-410 532,-755l0 -490c0,-647 -367,-1050 -1367,-1050l-749 0c47,18 95,49 116,72l5 8c0,0 1,2 1,2 16,34 48,19 77,15 67,-9 123,-8 165,34 33,34 53,110 49,177 -7,96 44,74 45,111 1,51 -47,47 -58,104 -6,26 3,26 -9,49 -9,15 -15,20 -25,31 -23,26 -33,33 -76,17 -13,-5 -33,-6 -42,-7 -18,-1 -7,1 -22,14 4,17 10,44 21,56 15,17 12,20 29,39l30 17c24,21 50,33 80,38 117,38 105,13 198,117l90 87c29,28 65,52 98,78 7,6 16,11 24,16 64,40 135,75 198,115 29,19 67,39 98,58l100 56c65,42 127,74 190,122l85 73c40,32 63,98 87,151 9,20 21,39 28,56 -64,-17 -48,-42 -115,-81 -30,-17 -29,-15 -49,13 -11,15 -31,38 -54,44 -1,-19 -2,-40 1,-58 14,-85 12,-42 -92,-112l-104 -57c-17,-10 -30,-21 -48,-30 -54,-27 -112,-50 -166,-81 -20,-11 -36,-14 -54,-23l-161 -86c-74,-40 -132,-79 -204,-122 -25,-15 -101,-55 -133,-53 -9,0 -17,-1 -24,3 -5,18 -7,20 -16,49 -41,87 -98,220 -100,320 -1,62 4,80 56,109 37,21 78,32 119,45 47,14 216,66 254,64 1,0 3,0 4,1 3,10 327,70 336,72 0,41 -23,105 -41,143 -29,59 -102,112 -152,114 -46,2 -43,-10 -74,18 -33,29 -24,33 -75,58 -5,3 -12,6 -15,8l-14 12 -43 17c-74,22 -130,47 -216,56 -12,65 -15,127 -30,195 -7,20 -15,76 -24,107 -12,45 -18,132 -25,182 -18,142 -29,145 -14,318 3,36 3,62 14,104 6,22 66,200 68,203 35,151 25,138 15,297 -2,22 -8,51 -10,73 -8,97 -50,352 10,397 26,19 48,37 57,70 17,71 -37,168 -37,200 -1,30 3,54 6,82 4,34 27,278 -53,268 -26,-3 -69,-31 -83,-75 -37,-117 -5,-413 -15,-481 -8,-60 -28,-139 -44,-198 -4,-12 -16,-54 -25,-64 0,-21 -15,-80 -29,-96l-24 -22c-30,97 -79,295 -79,387 0,42 -5,70 -5,112 0,34 8,80 -1,103 -29,72 -15,240 -10,325 4,52 1,124 -40,155l876 1c957,0 1389,-468 1389,-1144l0 -468c0,-446 -309,-791 -705,-885zm-1623 -2295l-1104 0 0 1126c117,-45 262,-77 366,-110 153,-48 155,-81 289,-165 19,-12 35,-21 55,-37 46,-37 129,-76 184,-89 46,-12 208,1 230,-24 28,-33 55,-71 60,-126 4,-41 -9,-50 -33,-64 -167,-99 -59,-274 -59,-346 -51,-30 -75,-106 -29,-146 7,-7 28,-13 41,-19zm-1104 1271l0 3520 1088 0c-15,-14 -27,-35 -30,-55 -3,-15 2,-33 7,-46 18,-53 7,-48 -9,-94 -49,-140 37,-247 34,-393 -2,-76 -5,-155 -10,-229 -5,-75 5,-162 -1,-236 -5,-54 -5,-116 2,-168l28 -151c5,-34 13,-64 17,-98 6,-51 -3,-56 -5,-102 -4,-79 -4,-144 8,-221 6,-37 -12,-62 -26,-89 -53,-107 -91,-219 -122,-339 -17,-61 -30,-118 -48,-185 -21,-75 -48,-158 -49,-239 0,-49 -45,-55 -93,-73 -58,-22 -117,2 -175,-23 -26,-11 -41,-31 -67,-42 -50,-19 -107,-35 -137,-88 -49,-87 -94,-60 -177,-104 -22,-12 -19,-7 -33,-27 -24,-33 -29,-27 -29,-84 0,-17 -2,-37 9,-48 9,-9 26,-11 41,-15 133,-34 265,-39 402,-37 68,2 139,10 213,6 41,-2 136,-40 150,-67 25,-45 37,-139 28,-201 -14,-100 -92,-164 -48,-270 12,-27 32,-57 40,-79 -50,-75 -175,14 -236,35 -76,28 -156,73 -235,97 -24,7 -53,20 -81,27 -15,5 -25,9 -41,14 -15,5 -33,10 -47,13 -116,32 -240,54 -351,85 -6,2 -12,4 -17,6z"/>
  </g>
 </g>
</svg>
