<?xml version="1.0" encoding="UTF-8"?>
<!-- Generator: Adobe Illustrator 16.0.0, SVG Export Plug-In . SVG Version: 6.00 Build 0)  -->
<!DOCTYPE svg PUBLIC "-//W3C//DTD SVG 1.1//EN" "http://www.w3.org/Graphics/SVG/1.1/DTD/svg11.dtd">
<svg version="1.1" id="Layer_1" xmlns="http://www.w3.org/2000/svg" xmlns:xlink="http://www.w3.org/1999/xlink" x="0px" y="0px" width="354px" height="112.5px" viewBox="0 0 354 112.5" enable-background="new 0 0 354 112.5" xml:space="preserve">
<g>
	<path d="M31.705-17.22c-0.716-1.91-0.065-3.865-0.201-5.792c-0.363-5.134-0.332-10.32-1.97-15.288   c-0.118-0.357-0.005-1.004-0.611-0.972c-0.396,0.021-0.525,0.511-0.638,0.869c-0.678,2.156-1.635,4.235-1.837,6.524   c-0.236,0.894-0.066,1.808-0.118,2.709c0.004,0.125,0.006,0.255-0.008,0.377c0.04,0.03,0.076,0.063,0.12,0.088   c0.002,0.137,0.004,0.272,0.006,0.411c-0.021,0.18-0.075,0.343-0.226,0.458c-0.041,0.005-0.085,0.018-0.13,0.033   c0.074,0.044,0.161,0.081,0.229,0.13c0.049,0.527-0.077,1.069,0.136,1.583c-0.086,1.241-0.175,2.479-0.258,3.718   c-0.047,0.717-0.229,1.399-0.677,1.963c-0.416,0.522-1.017,0.932-1.658,0.887c-0.752-0.058-0.97-0.756-1.059-1.433   c-0.32-1.569-0.326-3.135,0.074-4.693c-0.021-0.983,0.153-2.012-0.613-2.838c-0.312-0.315-0.149-0.75-0.271-1.113l0.051-0.105   l-0.083-0.083c-0.577-0.863-0.159-1.57,0.358-2.26c0.745-0.58,1.761-0.962,1.619-2.197c0.105-1.03,0.276-2.062-0.023-3.088   c-0.164-1.666-0.292-3.336-0.5-4.998c-0.345-2.767-0.447-5.47,0.761-8.118c1.713-3.756,1.944-7.72,1.295-11.757   c-0.401-0.646-0.253-1.375-0.314-2.072c-0.527-2.589-1.111-5.165-1.544-7.768c-0.131-0.784-0.464-0.932-1.118-1.052   c-2.773-0.52-5.496-1.188-7.686-3.146c-0.29-0.26-0.628-0.4-1.037-0.357c-1.412,0.156-2.461-0.625-3.518-1.379   c-0.295-0.138-0.547-0.308-0.552-0.681c-0.441-1.083-0.881-2.165-1.372-3.37c4.927-0.831,9.833-1.766,14.653-3.093   c3.895-1.072,4.33-1.852,3.172-5.748c-0.388-1.302-0.989-2.506-1.58-3.721c-0.411-0.844-0.998-1.379-1.993-1.323   c-3.049,0.752-5.516,2.713-8.308,4.002c-3.548,1.637-7.157,3.144-10.625,4.954v70.727h28.825   C32.143-16.423,31.877-16.761,31.705-17.22z"/>
	<path d="M62.378-70c8.213-3.563,11.466-8.831,11.466-16.269v-10.537c0-13.945-7.903-22.622-29.439-22.622H3.653v28.914   c0.131-0.027,0.27-0.04,0.355-0.157c5.021-2.615,10.267-4.842,14.632-8.574c0.09-0.083,0.181-0.165,0.272-0.247   c0.436-0.667,0.955-1.24,1.735-1.515c1.189-1.046,2.714-0.961,4.136-1.21c1.964-0.343,3.341-1.36,4.363-3.292   c-0.432-0.291-0.898-0.11-1.346-0.103c-0.542,0.132-1.091,0.363-1.587-0.12c-1.155-1.073-1.011-2.893-2.247-3.928   c-0.085-0.071-0.107-0.394-0.041-0.444c1.54-1.176,0.737-2.996,1.224-4.459c0.229-0.689,0.639-1.222,1.032-1.789   c0.049-0.193,0.168-0.263,0.361-0.213c1.014-0.488,2.11-0.667,3.165-0.359c1.266,0.369,1.973-0.096,2.692-1.094   c1.146-1.59,2.335-1.711,3.682-0.581c0.822,0.69,1.107,1.55,0.408,2.405c-0.6,0.731-0.616,1.361-0.331,2.21   c0.83,2.477,0.71,4.702-1.955,6.09c-0.657,0.342-0.631,0.964-0.487,1.563c0.274,1.144,0.865,2.082,1.902,2.697   c1,0.056,2.031-0.255,2.993,0.252c3.958,0.903,6.982,3.548,10.356,5.542c0.24-0.002,0.462,0.038,0.632,0.2   c0.042,0.008,0.075,0.038,0.093,0.107c4.697,1.159,9.508,1.956,13.788,4.424c2.071,1.194,3.228,3.013,3.769,5.285   c0.09,0.624-0.213,0.618-0.646,0.407c-0.064-0.459-0.066-0.94-0.462-1.281c-0.575-0.242-1.205-0.747-1.508,0.314   c-0.024,0.323-0.05,0.647-0.075,0.97c-0.097,0.125-0.196,0.12-0.297,0.005c-0.984-1.144-1.982-2.275-2.947-3.435   c-0.641-0.771-1.532-0.991-2.434-1.142c-6.077-1.021-11.947-2.814-17.706-4.939c-1.442-0.531-2.702-1.481-4.357-1.239   c-0.699,0.103-1.053,0.277-0.49,0.993c1.402,1.78,1.14,3.544,0.081,5.42c-0.999,1.77-0.849,3.729,0.025,5.466   c0.753,1.496,2.419,1.7,3.928,1.783c1.777,0.099,3.563,0.02,5.345,0.016c0.108-0.001,0.216-0.002,0.324-0.002   c0.978-0.122,1.955-0.15,2.931,0.018c1.012-0.002,2.034-0.09,3.011,0.281c1.251,0.036,2.494,0.104,3.549,0.904   c0,0.001,0,0.001,0,0.001c0.388,0.612,0.354,1.222-0.007,1.833c-0.283,0.374-0.518,1.023-0.857,1.084   c-2.947,0.521-4.652,3.086-7.194,4.263c-1.829,0.845-3.66,1.357-5.717,1.42c-2.002,0.063-2.434,0.917-2.911,2.867   c-1.269,5.188-2.508,10.4-5.032,15.179c-0.291,0.552-0.804,1.06-0.493,1.783c0.432,0.724,0.054,1.547,0.289,2.294   c-0.256,2.199-0.544,4.384,0.048,6.592c1.271,4.741,0.707,9.582,0.573,14.379c-0.073,2.628,0.083,5.177,0.874,7.682   c0.268,0.846,0.37,1.73,0.103,2.562c-0.363,1.131-0.795,2.152-0.345,3.431c0.241,0.686-0.225,1.368-0.899,1.685h13.706   c20.608,0,29.904-10.075,29.904-24.641v-10.071C77.563-60.547,70.9-67.984,62.378-70z"/>
	<path d="M23.168-24.805c-0.001-0.019-0.002-0.036-0.004-0.054c-0.005,0.012-0.009,0.026-0.013,0.039   C23.156-24.814,23.163-24.811,23.168-24.805z"/>
	<path d="M90.375-89.637h12.745h0.937l12.457,18.434h4.824l-12.817-19.01c5.617-1.368,7.777-5.256,7.777-10.513v-7.345   c0-6.697-3.528-11.089-13.178-11.089H86.127v47.956h4.248V-89.637z M90.375-115.343h12.817c6.049,0,8.856,2.016,8.856,7.272v7.345   c0,5.257-2.808,7.272-8.856,7.272H90.375V-115.343z"/>
	<rect x="131.055" y="-119.159" width="4.248" height="47.956"/>
	<polygon points="174.472,-75.02 152.87,-75.02 152.87,-119.159 148.622,-119.159 148.622,-71.203 174.472,-71.203  "/>
	<polygon points="188.438,-93.957 211.623,-93.957 211.623,-71.203 215.871,-71.203 215.871,-119.159 211.623,-119.159    211.623,-97.773 188.438,-97.773 188.438,-119.159 184.189,-119.159 184.189,-71.203 188.438,-71.203  "/>
	<path d="M236.893-80.563h16.059l2.592,9.36h11.232l-14.689-47.956h-14.4l-14.617,47.956h11.232L236.893-80.563z M244.887-109.654   l5.473,20.09h-11.018L244.887-109.654z"/>
	<path d="M282.975-86.108h6.336l10.584,14.905h12.818L301.119-87.62c4.824-2.017,6.984-6.049,6.984-12.025v-5.904   c0-9.001-4.32-13.609-15.984-13.609h-19.945v47.956h10.801V-86.108z M282.975-109.582h8.568c4.393,0,5.76,1.439,5.76,5.04v3.816   c0,3.601-1.152,5.257-5.76,5.257h-8.568V-109.582z"/>
	<polygon points="327.541,-71.203 338.342,-71.203 338.342,-109.582 351.23,-109.582 351.23,-119.159 314.652,-119.159    314.652,-109.582 327.541,-109.582  "/>
	<polygon points="88.058,-26.795 98.313,-26.795 98.313,-28.644 88.058,-28.644 88.058,-37.26 99.081,-37.26 99.081,-39.108    86,-39.108 86,-15.877 99.116,-15.877 99.116,-17.726 88.058,-17.726  "/>
	<path d="M142.158-28.435c-4.883-1.221-4.988-1.396-4.988-5.162c0-2.896,0.628-4.012,5.232-4.012c1.814,0,3.977,0.314,5.686,0.698   l0.244-1.744c-1.57-0.454-3.977-0.803-6-0.803c-5.825,0-7.22,1.988-7.22,5.79c0,4.675,0.628,5.687,6.244,6.977   c5.163,1.187,5.197,1.57,5.197,5.163c0,2.965-1.081,4.15-5.058,4.15c-2.023,0-4.151-0.313-6.244-0.941l-0.384,1.674   c1.988,0.768,4.535,1.116,6.558,1.116c5.895,0,7.186-2.302,7.186-6.104C148.611-26.027,148.262-26.899,142.158-28.435z"/>
	<path d="M192.421-37.608c1.5,0,3.593,0.175,5.162,0.454l0.244-1.779c-1.743-0.349-3.906-0.523-5.581-0.523   c-5.615,0-7.709,2.407-7.709,6.732v10.464c0,4.326,2.094,6.732,7.709,6.732c1.675,0,3.838-0.174,5.581-0.523l-0.244-1.778   c-1.569,0.279-3.662,0.453-5.162,0.453c-4.221,0-5.825-1.291-5.825-4.918v-10.395C186.596-36.317,188.2-37.608,192.421-37.608z"/>
	<path d="M241.184-39.457c-5.965,0-8.127,2.93-8.127,6.906v10.116c0,3.977,2.162,6.906,8.127,6.906s8.127-2.93,8.127-6.906v-10.116   C249.311-36.527,247.148-39.457,241.184-39.457z M247.252-22.505c0,3.314-1.604,5.128-6.068,5.128s-6.07-1.813-6.07-5.128v-9.976   c0-3.313,1.605-5.128,6.07-5.128s6.068,1.814,6.068,5.128V-22.505z"/>
	<polygon points="287.818,-39.108 285.76,-39.108 285.76,-15.877 298.283,-15.877 298.283,-17.726 287.818,-17.726  "/>
	<path d="M339.859-39.108l-8.092,23.231h2.023l2.162-6.104h10.813l2.197,6.104h2.023l-8.092-23.231H339.859z M336.58-23.76   l4.779-14.162l4.779,14.162H336.58z"/>
	<rect x="86.028" y="-56.187" width="265.208" height="2"/>
</g>
<path d="M-29.307,193.398c-0.001-0.019-0.002-0.036-0.004-0.054c-0.005,0.012-0.009,0.026-0.013,0.039  C-29.318,193.389-29.312,193.393-29.307,193.398z"/>
<g>
	<path d="M22.72,98.87c-0.005,0.012-0.009,0.026-0.014,0.039c0.006,0.005,0.012,0.009,0.018,0.015   C22.722,98.905,22.721,98.887,22.72,98.87z"/>
	<path d="M89.931,34.091h12.745h0.937l12.457,18.434h4.824l-12.817-19.01c5.617-1.368,7.777-5.256,7.777-10.513v-7.345   c0-6.697-3.528-11.089-13.178-11.089H85.683v47.956h4.248V34.091z M89.931,8.385h12.817c6.049,0,8.856,2.016,8.856,7.272v7.345   c0,5.257-2.808,7.272-8.856,7.272H89.931V8.385z"/>
	<rect x="130.61" y="4.569" width="4.248" height="47.956"/>
	<polygon points="174.028,48.708 152.425,48.708 152.425,4.569 148.177,4.569 148.177,52.525 174.028,52.525  "/>
	<polygon points="187.993,29.771 211.179,29.771 211.179,52.525 215.427,52.525 215.427,4.569 211.179,4.569 211.179,25.955    187.993,25.955 187.993,4.569 183.745,4.569 183.745,52.525 187.993,52.525  "/>
	<path d="M236.448,43.165h16.059l2.592,9.36h11.232L251.642,4.569h-14.4l-14.617,47.956h11.232L236.448,43.165z M244.442,14.074   l5.473,20.09h-11.018L244.442,14.074z"/>
	<path d="M282.53,37.62h6.336l10.584,14.905h12.818l-11.594-16.417c4.824-2.017,6.984-6.049,6.984-12.025v-5.904   c0-9.001-4.32-13.609-15.984-13.609h-19.945v47.956h10.801V37.62z M282.53,14.146h8.568c4.393,0,5.76,1.439,5.76,5.04v3.816   c0,3.601-1.152,5.257-5.76,5.257h-8.568V14.146z"/>
	<polygon points="327.097,52.525 337.897,52.525 337.897,14.146 350.786,14.146 350.786,4.569 314.208,4.569 314.208,14.146    327.097,14.146  "/>
	<polygon points="87.613,96.933 97.869,96.933 97.869,95.084 87.613,95.084 87.613,86.468 98.636,86.468 98.636,84.62 85.556,84.62    85.556,107.851 98.671,107.851 98.671,106.002 87.613,106.002  "/>
	<path d="M141.714,95.293c-4.884-1.221-4.988-1.396-4.988-5.162c0-2.896,0.628-4.012,5.232-4.012c1.813,0,3.977,0.314,5.686,0.698   l0.244-1.744c-1.57-0.454-3.977-0.803-6-0.803c-5.825,0-7.221,1.988-7.221,5.79c0,4.675,0.629,5.687,6.244,6.977   c5.162,1.187,5.197,1.57,5.197,5.163c0,2.965-1.081,4.15-5.058,4.15c-2.022,0-4.151-0.313-6.244-0.941l-0.384,1.674   c1.988,0.768,4.535,1.116,6.559,1.116c5.895,0,7.186-2.302,7.186-6.104C148.167,97.701,147.817,96.829,141.714,95.293z"/>
	<path d="M191.977,86.12c1.5,0,3.593,0.175,5.162,0.454l0.244-1.779c-1.743-0.349-3.906-0.523-5.581-0.523   c-5.615,0-7.709,2.407-7.709,6.732v10.464c0,4.326,2.094,6.732,7.709,6.732c1.675,0,3.838-0.174,5.581-0.523l-0.244-1.778   c-1.569,0.279-3.662,0.453-5.162,0.453c-4.221,0-5.825-1.291-5.825-4.918V91.039C186.151,87.411,187.756,86.12,191.977,86.12z"/>
	<path d="M240.739,84.271c-5.965,0-8.127,2.93-8.127,6.906v10.116c0,3.977,2.162,6.906,8.127,6.906s8.127-2.93,8.127-6.906V91.177   C248.866,87.201,246.704,84.271,240.739,84.271z M246.808,101.223c0,3.314-1.604,5.128-6.068,5.128s-6.07-1.813-6.07-5.128v-9.976   c0-3.313,1.605-5.128,6.07-5.128s6.068,1.814,6.068,5.128V101.223z"/>
	<polygon points="287.374,84.62 285.315,84.62 285.315,107.851 297.839,107.851 297.839,106.002 287.374,106.002  "/>
	<path d="M339.415,84.62l-8.092,23.231h2.023l2.162-6.104h10.813l2.197,6.104h2.023L342.45,84.62H339.415z M336.136,99.968   l4.779-14.162l4.779,14.162H336.136z"/>
	<rect x="85.583" y="67.542" width="265.209" height="2"/>
	<path d="M14.484,75.518c3.604,1.412,3.601,1.412,3.601-2.61c-0.001-21.882,0.049-43.763-0.063-65.645   c-0.009-1.718,0.324-2.589,1.26-2.962H3.208v6.403v22.511v3.557v27.433v9.889C6.943,73.656,10.852,74.095,14.484,75.518z"/>
	<path d="M61.934,53.728c8.213-3.563,11.466-8.831,11.466-16.269V26.922C73.399,12.977,65.497,4.3,43.96,4.3h-5.763H24.224   c1.411,0.32,1.472,1.214,1.914,4.239c0.856,5.854,3.946,10.858,8.568,14.12c10.465,7.387,10.907,17.37,8.632,28.374   c-0.416,2.011-1.03,3.981-1.571,5.966c-0.1,0.367-0.288,0.71-0.71,1.72c-3.066-9.426-6.476-17.951-14.976-24.077   c0,1.735,0,2.77,0,3.805c-0.001,16.573,0.005,33.147-0.004,49.721c-0.005,9.667-4.685,15.974-13.662,18.458   c-3.067,0.848-6.206,1.05-9.207,0.697v0.176h15.655h13.17h1.475h4.855h8.851c20.608,0,29.904-10.075,29.904-24.641V72.786   C77.118,63.181,70.455,55.744,61.934,53.728z"/>
</g>
<g>
	<path d="M89.931,317.091h12.745h0.937l12.457,18.434h4.824l-12.817-19.01c5.617-1.367,7.777-5.256,7.777-10.513v-7.345   c0-6.696-3.528-11.089-13.178-11.089H85.683v47.956h4.248V317.091z M89.931,291.385h12.817c6.049,0,8.856,2.017,8.856,7.272v7.345   c0,5.257-2.808,7.272-8.856,7.272H89.931V291.385z"/>
	<rect x="130.61" y="287.568" width="4.248" height="47.956"/>
	<polygon points="174.028,331.708 152.425,331.708 152.425,287.568 148.177,287.568 148.177,335.524 174.028,335.524  "/>
	<polygon points="187.993,312.771 211.179,312.771 211.179,335.524 215.427,335.524 215.427,287.568 211.179,287.568    211.179,308.954 187.993,308.954 187.993,287.568 183.745,287.568 183.745,335.524 187.993,335.524  "/>
	<path d="M236.448,326.165h16.059l2.592,9.359h11.232l-14.689-47.956h-14.4l-14.617,47.956h11.232L236.448,326.165z    M244.442,297.073l5.473,20.09h-11.018L244.442,297.073z"/>
	<path d="M282.53,320.62h6.336l10.584,14.904h12.818l-11.594-16.416c4.824-2.018,6.984-6.049,6.984-12.026v-5.904   c0-9.001-4.32-13.609-15.984-13.609h-19.945v47.956h10.801V320.62z M282.53,297.146h8.568c4.393,0,5.76,1.439,5.76,5.04v3.816   c0,3.601-1.152,5.257-5.76,5.257h-8.568V297.146z"/>
	<polygon points="327.097,335.524 337.897,335.524 337.897,297.146 350.786,297.146 350.786,287.568 314.208,287.568    314.208,297.146 327.097,297.146  "/>
	<polygon points="87.613,379.933 97.869,379.933 97.869,378.085 87.613,378.085 87.613,369.468 98.636,369.468 98.636,367.62    85.556,367.62 85.556,390.851 98.671,390.851 98.671,389.003 87.613,389.003  "/>
	<path d="M141.714,378.294c-4.884-1.221-4.988-1.396-4.988-5.162c0-2.896,0.628-4.012,5.232-4.012c1.813,0,3.977,0.314,5.686,0.697   l0.244-1.744c-1.57-0.453-3.977-0.803-6-0.803c-5.825,0-7.221,1.988-7.221,5.791c0,4.674,0.629,5.686,6.244,6.977   c5.162,1.186,5.197,1.57,5.197,5.162c0,2.965-1.081,4.15-5.058,4.15c-2.022,0-4.151-0.313-6.244-0.941l-0.384,1.674   c1.988,0.768,4.535,1.117,6.559,1.117c5.895,0,7.186-2.303,7.186-6.105C148.167,380.7,147.817,379.829,141.714,378.294z"/>
	<path d="M191.977,369.12c1.5,0,3.593,0.174,5.162,0.453l0.244-1.779c-1.743-0.348-3.906-0.523-5.581-0.523   c-5.615,0-7.709,2.408-7.709,6.732v10.465c0,4.326,2.094,6.732,7.709,6.732c1.675,0,3.838-0.174,5.581-0.523l-0.244-1.779   c-1.569,0.279-3.662,0.453-5.162,0.453c-4.221,0-5.825-1.291-5.825-4.918v-10.395C186.151,370.411,187.756,369.12,191.977,369.12z"/>
	<path d="M240.739,367.271c-5.965,0-8.127,2.93-8.127,6.906v10.117c0,3.977,2.162,6.906,8.127,6.906s8.127-2.93,8.127-6.906v-10.117   C248.866,370.2,246.704,367.271,240.739,367.271z M246.808,384.224c0,3.314-1.604,5.127-6.068,5.127s-6.07-1.813-6.07-5.127v-9.977   c0-3.313,1.605-5.127,6.07-5.127s6.068,1.814,6.068,5.127V384.224z"/>
	<polygon points="287.374,367.62 285.315,367.62 285.315,390.851 297.839,390.851 297.839,389.003 287.374,389.003  "/>
	<path d="M339.415,367.62l-8.092,23.23h2.023l2.162-6.104h10.813l2.197,6.104h2.023l-8.092-23.23H339.415z M336.136,382.968   l4.779-14.162l4.779,14.162H336.136z"/>
	<rect x="85.583" y="350.542" width="265.209" height="2"/>
	<path d="M6.445,289.666c-1.174-0.563-2.171-0.268-3.237-0.465v0.467C4.164,289.652,5.149,289.666,6.445,289.666z"/>
	<path d="M9.564,301.771c0.849-0.479,1.198-0.244,1.591,0.54c0.545,1.087,1.123,2.183,1.865,3.136   c0.674,0.865,1.345,2.084,2.857,0.955c0.563-0.419,1.637,0.018,1.074,0.749c-1.255,1.634-0.465,2.942,0.105,4.401   c0.156,0.4,0.082,0.89,0.119,1.417c0.58-0.26,1.147-0.482,1.684-0.764c0.384-0.202,0.586-0.87,0.397-0.958   c-1.838-0.855,0.036-1.968-0.212-2.658c-0.918-2.553,0.629-5.578-1.688-7.857c-0.939-0.925-1.451-2.262-1.849-3.557   c-0.525-1.708-1.979-2.643-3.127-3.822c-0.531-0.546-1.188-0.137-1.798,0.051c-2.028,0.622-3.979,0.335-5.923-0.403   c0.225-1.041,1.087-0.36,1.562-0.939c-1.05-0.131-2.037-0.253-3.016-0.375v2.018v11.441c0.187-0.156,0.434-0.304,0.745-0.452   C5.855,303.784,7.729,302.808,9.564,301.771z"/>
	<path d="M7.213,288.717c-0.709-0.676-1.35-0.97-2.144-0.972c-0.463-0.001-0.516-0.198-0.457-0.445H3.208v1.499   C4.552,288.281,5.839,288.939,7.213,288.717z"/>
	<path d="M3.531,290.817c0.439,0.043,0.891,0.225,1.188,0.021C4.367,290.753,3.959,290.791,3.531,290.817z"/>
	<path d="M61.934,336.728c8.213-3.563,11.466-8.83,11.466-16.269v-10.537c0-13.945-7.902-22.622-29.439-22.622h-5.763h-18.5H8.04   c1.565,0.304,3.163,0.455,4.678,1.24c2.938,1.521,5.104,3.875,7.332,6.128c1.463,1.479,2.461,3.436,3.75,5.119   c0.691,0.903,0.98,1.966,1.048,3.059c0.266,4.288,0.621,8.573,0.82,12.864c0.166,3.596,1.701,6.656,3.382,9.688   c0.245,0.442,0.585,0.856,0.949,1.21c0.781,0.757,0.952,2.43,2.421,2.134c1.707-0.344,3.333-0.729,4.646-2.351   c1.495-1.848,1.463-3.456,0.767-5.457c-1.644-4.729-2.646-9.664-4.553-14.31c-0.411-1.002-0.006-1.635,0.897-1.98   c1.034-0.396,1.621,0.187,1.84,1.113c0.653,2.752,1.532,5.44,2.3,8.159c0.733,2.597,1.558,5.166,2.278,7.766   c0.26,0.941,0.604,1.821,1.483,2.397c1.616,1.059,2.011,2.66,1.617,4.399c-0.33,1.459-0.13,2.805,0.302,4.161   c1.325,4.164,2.335,8.42,3.668,12.578c0.491,1.531,0.566,3.141,1.057,4.662c0,0.386,0,0.772,0,1.158   c-1.366,0.509-1.264-0.69-1.467-1.354c-1.85-6.046-3.646-12.107-5.489-18.155c-0.166-0.544,0.025-1.683-0.961-1.364   c-1.072,0.345-2.767,0.831-2.614,2.059c0.229,1.84-0.774,2.184-1.979,2.633c-2.784,1.038-2.948,1.114-1.662,3.794   c2.305,4.803,1.974,9.85,1.782,14.912c-0.007,0.189-0.068,0.379-0.11,0.566c-0.442,1.943-1.47,3.476-3.433,4.039   c-1.937,0.557-2.578-1.217-3.628-2.407c-2.365,2.707-2.759,6.017-3.148,9.328c-0.055,0.467,0.243,0.78,0.559,0.925   c1.684,0.772,1.524,2.061,1.472,3.65c-0.078,2.324-0.498,4.594-0.218,7.024c0.368,3.19,1.139,6.293,1.498,9.465   c0.138,1.214,0.676,2.586-0.638,3.561c-1.013,0.751-2.077,0.801-3.268,0.342c-0.851-0.328-1.211-0.886-1.311-1.699   c-0.259-2.105-0.906-4.124-1.116-6.262c-0.35-3.555-1.239-6.996-2.824-10.296c-1.196-2.489-1.755-5.285-2.589-7.946   c-0.056-0.18-0.135-0.438-0.054-0.561c1.923-2.951-1.645-3.434-2.383-5.187c-0.312-0.739-0.855,0.104-1.173,0.376   c-2.943,2.521-5.271,5.622-7.856,8.477c-0.975,1.076-1.936,2.165-2.904,3.247v20.291h15.655h13.17h1.475h4.855h8.851   c20.608,0,29.904-10.074,29.904-24.641v-10.07C77.118,346.181,70.455,338.743,61.934,336.728z"/>
	<path d="M8.044,348.784c-0.034-0.699,1.196-0.568,1.467-0.983c0.97-1.487,2.457-2.622,3.042-4.355   c0.571-1.688,0.943-3.449,1.842-5.019c0.599-1.044,0.026-1.883-0.58-2.617c-1.635-1.982-3.311-3.933-5.019-5.853   c-2.462-2.769-2.558-3.701-0.547-6.737c0.248-0.374,0.511-0.74,0.742-1.124c1.896-3.147,2.192-2.389-0.415-5.22   c-0.294-0.319-0.64-0.745-0.659-1.135c-0.078-1.615-0.68-2.4-2.421-1.959c-0.382,0.096-0.962-0.024-1.186-0.464   c-0.319-0.63,0.249-0.978,0.651-1.206c0.714-0.403,0.612-0.832,0.296-1.424c-0.665-1.24-1.15-2.6-1.956-3.736   c-0.038-0.054-0.061-0.098-0.094-0.148v9.41v3.557v27.433v9.12c0.968-1.256,1.879-2.557,2.841-3.818   C6.886,351.407,8.126,350.489,8.044,348.784z"/>
</g>
</svg>